<?xml version="1.0" encoding="UTF-8" standalone="no"?>
<!DOCTYPE svg PUBLIC "-//W3C//DTD SVG 1.1//EN"
 "http://www.w3.org/Graphics/SVG/1.1/DTD/svg11.dtd">
<!-- Generated by graphviz version 2.38.0 (20140413.2041)
 -->
<!-- Title: controllers_diagram Pages: 1 -->
<svg width="1624pt" height="211pt"
 viewBox="0.00 0.00 1623.63 211.00" xmlns="http://www.w3.org/2000/svg" xmlns:xlink="http://www.w3.org/1999/xlink">
<g id="graph0" class="graph" transform="scale(1 1) rotate(0) translate(4 207)">
<title>controllers_diagram</title>
<polygon fill="white" stroke="none" points="-4,4 -4,-207 1619.63,-207 1619.63,4 -4,4"/>
<!-- ApplicationController -->
<g id="node1" class="node"><title>ApplicationController</title>
<path fill="none" stroke="black" d="M12,-42.5C12,-42.5 197.635,-42.5 197.635,-42.5 203.635,-42.5 209.635,-48.5 209.635,-54.5 209.635,-54.5 209.635,-148.5 209.635,-148.5 209.635,-154.5 203.635,-160.5 197.635,-160.5 197.635,-160.5 12,-160.5 12,-160.5 6,-160.5 0,-154.5 0,-148.5 0,-148.5 0,-54.5 0,-54.5 0,-48.5 6,-42.5 12,-42.5"/>
<text text-anchor="middle" x="104.817" y="-145.3" font-family="Times,serif" font-size="14.00">ApplicationController</text>
<polyline fill="none" stroke="black" points="0,-138.5 209.635,-138.5 "/>
<text text-anchor="start" x="8" y="-123.3" font-family="Times,serif" font-size="14.00">_one_time_conditions_valid_102?</text>
<text text-anchor="start" x="8" y="-109.3" font-family="Times,serif" font-size="14.00">after_sign_in_path_for</text>
<text text-anchor="start" x="8" y="-95.3" font-family="Times,serif" font-size="14.00">after_sign_out_for</text>
<polyline fill="none" stroke="black" points="0,-88.5 209.635,-88.5 "/>
<polyline fill="none" stroke="black" points="0,-64.5 209.635,-64.5 "/>
<text text-anchor="start" x="8" y="-49.3" font-family="Times,serif" font-size="14.00">_layout</text>
</g>
<!-- GroupsController -->
<g id="node2" class="node"><title>GroupsController</title>
<path fill="none" stroke="black" d="M240,-7.5C240,-7.5 425.635,-7.5 425.635,-7.5 431.635,-7.5 437.635,-13.5 437.635,-19.5 437.635,-19.5 437.635,-183.5 437.635,-183.5 437.635,-189.5 431.635,-195.5 425.635,-195.5 425.635,-195.5 240,-195.5 240,-195.5 234,-195.5 228,-189.5 228,-183.5 228,-183.5 228,-19.5 228,-19.5 228,-13.5 234,-7.5 240,-7.5"/>
<text text-anchor="middle" x="332.817" y="-180.3" font-family="Times,serif" font-size="14.00">GroupsController</text>
<polyline fill="none" stroke="black" points="228,-173.5 437.635,-173.5 "/>
<text text-anchor="start" x="236" y="-158.3" font-family="Times,serif" font-size="14.00">_one_time_conditions_valid_124?</text>
<text text-anchor="start" x="236" y="-144.3" font-family="Times,serif" font-size="14.00">create</text>
<text text-anchor="start" x="236" y="-130.3" font-family="Times,serif" font-size="14.00">destroy</text>
<text text-anchor="start" x="236" y="-116.3" font-family="Times,serif" font-size="14.00">edit</text>
<text text-anchor="start" x="236" y="-102.3" font-family="Times,serif" font-size="14.00">index</text>
<text text-anchor="start" x="236" y="-88.3" font-family="Times,serif" font-size="14.00">new</text>
<text text-anchor="start" x="236" y="-74.3" font-family="Times,serif" font-size="14.00">show</text>
<text text-anchor="start" x="236" y="-60.3" font-family="Times,serif" font-size="14.00">update</text>
<polyline fill="none" stroke="black" points="228,-53.5 437.635,-53.5 "/>
<polyline fill="none" stroke="black" points="228,-29.5 437.635,-29.5 "/>
<text text-anchor="start" x="236" y="-14.3" font-family="Times,serif" font-size="14.00">_layout</text>
</g>
<!-- HomeController -->
<g id="node3" class="node"><title>HomeController</title>
<path fill="none" stroke="black" d="M467.938,-56.5C467.938,-56.5 551.697,-56.5 551.697,-56.5 557.697,-56.5 563.697,-62.5 563.697,-68.5 563.697,-68.5 563.697,-134.5 563.697,-134.5 563.697,-140.5 557.697,-146.5 551.697,-146.5 551.697,-146.5 467.938,-146.5 467.938,-146.5 461.938,-146.5 455.938,-140.5 455.938,-134.5 455.938,-134.5 455.938,-68.5 455.938,-68.5 455.938,-62.5 461.938,-56.5 467.938,-56.5"/>
<text text-anchor="middle" x="509.817" y="-131.3" font-family="Times,serif" font-size="14.00">HomeController</text>
<polyline fill="none" stroke="black" points="455.938,-124.5 563.697,-124.5 "/>
<text text-anchor="start" x="463.938" y="-109.3" font-family="Times,serif" font-size="14.00">index</text>
<polyline fill="none" stroke="black" points="455.938,-102.5 563.697,-102.5 "/>
<polyline fill="none" stroke="black" points="455.938,-78.5 563.697,-78.5 "/>
<text text-anchor="start" x="463.938" y="-63.3" font-family="Times,serif" font-size="14.00">_layout</text>
</g>
<!-- OmniauthCallbacksController -->
<g id="node4" class="node"><title>OmniauthCallbacksController</title>
<path fill="none" stroke="black" d="M593.445,-56.5C593.445,-56.5 754.19,-56.5 754.19,-56.5 760.19,-56.5 766.19,-62.5 766.19,-68.5 766.19,-68.5 766.19,-134.5 766.19,-134.5 766.19,-140.5 760.19,-146.5 754.19,-146.5 754.19,-146.5 593.445,-146.5 593.445,-146.5 587.445,-146.5 581.445,-140.5 581.445,-134.5 581.445,-134.5 581.445,-68.5 581.445,-68.5 581.445,-62.5 587.445,-56.5 593.445,-56.5"/>
<text text-anchor="middle" x="673.817" y="-131.3" font-family="Times,serif" font-size="14.00">OmniauthCallbacksController</text>
<polyline fill="none" stroke="black" points="581.445,-124.5 766.19,-124.5 "/>
<text text-anchor="start" x="589.445" y="-109.3" font-family="Times,serif" font-size="14.00">google_oauth2</text>
<polyline fill="none" stroke="black" points="581.445,-102.5 766.19,-102.5 "/>
<polyline fill="none" stroke="black" points="581.445,-78.5 766.19,-78.5 "/>
<text text-anchor="start" x="589.445" y="-63.3" font-family="Times,serif" font-size="14.00">_layout</text>
</g>
<!-- RegistrationsController -->
<g id="node5" class="node"><title>RegistrationsController</title>
<path fill="none" stroke="black" d="M796.104,-56.5C796.104,-56.5 919.531,-56.5 919.531,-56.5 925.531,-56.5 931.531,-62.5 931.531,-68.5 931.531,-68.5 931.531,-134.5 931.531,-134.5 931.531,-140.5 925.531,-146.5 919.531,-146.5 919.531,-146.5 796.104,-146.5 796.104,-146.5 790.104,-146.5 784.104,-140.5 784.104,-134.5 784.104,-134.5 784.104,-68.5 784.104,-68.5 784.104,-62.5 790.104,-56.5 796.104,-56.5"/>
<text text-anchor="middle" x="857.817" y="-131.3" font-family="Times,serif" font-size="14.00">RegistrationsController</text>
<polyline fill="none" stroke="black" points="784.104,-124.5 931.531,-124.5 "/>
<text text-anchor="start" x="792.104" y="-109.3" font-family="Times,serif" font-size="14.00">create</text>
<polyline fill="none" stroke="black" points="784.104,-102.5 931.531,-102.5 "/>
<polyline fill="none" stroke="black" points="784.104,-78.5 931.531,-78.5 "/>
<text text-anchor="start" x="792.104" y="-63.3" font-family="Times,serif" font-size="14.00">_layout</text>
</g>
<!-- ReviewsController -->
<g id="node6" class="node"><title>ReviewsController</title>
<path fill="none" stroke="black" d="M962,-7.5C962,-7.5 1147.63,-7.5 1147.63,-7.5 1153.63,-7.5 1159.63,-13.5 1159.63,-19.5 1159.63,-19.5 1159.63,-183.5 1159.63,-183.5 1159.63,-189.5 1153.63,-195.5 1147.63,-195.5 1147.63,-195.5 962,-195.5 962,-195.5 956,-195.5 950,-189.5 950,-183.5 950,-183.5 950,-19.5 950,-19.5 950,-13.5 956,-7.5 962,-7.5"/>
<text text-anchor="middle" x="1054.82" y="-180.3" font-family="Times,serif" font-size="14.00">ReviewsController</text>
<polyline fill="none" stroke="black" points="950,-173.5 1159.63,-173.5 "/>
<text text-anchor="start" x="958" y="-158.3" font-family="Times,serif" font-size="14.00">_one_time_conditions_valid_142?</text>
<text text-anchor="start" x="958" y="-144.3" font-family="Times,serif" font-size="14.00">create</text>
<text text-anchor="start" x="958" y="-130.3" font-family="Times,serif" font-size="14.00">destroy</text>
<text text-anchor="start" x="958" y="-116.3" font-family="Times,serif" font-size="14.00">edit</text>
<text text-anchor="start" x="958" y="-102.3" font-family="Times,serif" font-size="14.00">index</text>
<text text-anchor="start" x="958" y="-88.3" font-family="Times,serif" font-size="14.00">new</text>
<text text-anchor="start" x="958" y="-74.3" font-family="Times,serif" font-size="14.00">show</text>
<text text-anchor="start" x="958" y="-60.3" font-family="Times,serif" font-size="14.00">update</text>
<polyline fill="none" stroke="black" points="950,-53.5 1159.63,-53.5 "/>
<polyline fill="none" stroke="black" points="950,-29.5 1159.63,-29.5 "/>
<text text-anchor="start" x="958" y="-14.3" font-family="Times,serif" font-size="14.00">_layout</text>
</g>
<!-- UsersController -->
<g id="node7" class="node"><title>UsersController</title>
<path fill="none" stroke="black" d="M1190,-7.5C1190,-7.5 1375.63,-7.5 1375.63,-7.5 1381.63,-7.5 1387.63,-13.5 1387.63,-19.5 1387.63,-19.5 1387.63,-183.5 1387.63,-183.5 1387.63,-189.5 1381.63,-195.5 1375.63,-195.5 1375.63,-195.5 1190,-195.5 1190,-195.5 1184,-195.5 1178,-189.5 1178,-183.5 1178,-183.5 1178,-19.5 1178,-19.5 1178,-13.5 1184,-7.5 1190,-7.5"/>
<text text-anchor="middle" x="1282.82" y="-180.3" font-family="Times,serif" font-size="14.00">UsersController</text>
<polyline fill="none" stroke="black" points="1178,-173.5 1387.63,-173.5 "/>
<text text-anchor="start" x="1186" y="-158.3" font-family="Times,serif" font-size="14.00">_one_time_conditions_valid_144?</text>
<text text-anchor="start" x="1186" y="-144.3" font-family="Times,serif" font-size="14.00">create</text>
<text text-anchor="start" x="1186" y="-130.3" font-family="Times,serif" font-size="14.00">destroy</text>
<text text-anchor="start" x="1186" y="-116.3" font-family="Times,serif" font-size="14.00">edit</text>
<text text-anchor="start" x="1186" y="-102.3" font-family="Times,serif" font-size="14.00">index</text>
<text text-anchor="start" x="1186" y="-88.3" font-family="Times,serif" font-size="14.00">new</text>
<text text-anchor="start" x="1186" y="-74.3" font-family="Times,serif" font-size="14.00">show</text>
<text text-anchor="start" x="1186" y="-60.3" font-family="Times,serif" font-size="14.00">update</text>
<polyline fill="none" stroke="black" points="1178,-53.5 1387.63,-53.5 "/>
<polyline fill="none" stroke="black" points="1178,-29.5 1387.63,-29.5 "/>
<text text-anchor="start" x="1186" y="-14.3" font-family="Times,serif" font-size="14.00">_layout</text>
</g>
<!-- WifisController -->
<g id="node8" class="node"><title>WifisController</title>
<path fill="none" stroke="black" d="M1418,-0.5C1418,-0.5 1603.63,-0.5 1603.63,-0.5 1609.63,-0.5 1615.63,-6.5 1615.63,-12.5 1615.63,-12.5 1615.63,-190.5 1615.63,-190.5 1615.63,-196.5 1609.63,-202.5 1603.63,-202.5 1603.63,-202.5 1418,-202.5 1418,-202.5 1412,-202.5 1406,-196.5 1406,-190.5 1406,-190.5 1406,-12.5 1406,-12.5 1406,-6.5 1412,-0.5 1418,-0.5"/>
<text text-anchor="middle" x="1510.82" y="-187.3" font-family="Times,serif" font-size="14.00">WifisController</text>
<polyline fill="none" stroke="black" points="1406,-180.5 1615.63,-180.5 "/>
<text text-anchor="start" x="1414" y="-165.3" font-family="Times,serif" font-size="14.00">_one_time_conditions_valid_216?</text>
<text text-anchor="start" x="1414" y="-151.3" font-family="Times,serif" font-size="14.00">add_favourite</text>
<text text-anchor="start" x="1414" y="-137.3" font-family="Times,serif" font-size="14.00">create</text>
<text text-anchor="start" x="1414" y="-123.3" font-family="Times,serif" font-size="14.00">destroy</text>
<text text-anchor="start" x="1414" y="-109.3" font-family="Times,serif" font-size="14.00">edit</text>
<text text-anchor="start" x="1414" y="-95.3" font-family="Times,serif" font-size="14.00">index</text>
<text text-anchor="start" x="1414" y="-81.3" font-family="Times,serif" font-size="14.00">new</text>
<text text-anchor="start" x="1414" y="-67.3" font-family="Times,serif" font-size="14.00">show</text>
<text text-anchor="start" x="1414" y="-53.3" font-family="Times,serif" font-size="14.00">update</text>
<polyline fill="none" stroke="black" points="1406,-46.5 1615.63,-46.5 "/>
<polyline fill="none" stroke="black" points="1406,-22.5 1615.63,-22.5 "/>
<text text-anchor="start" x="1414" y="-7.3" font-family="Times,serif" font-size="14.00">_layout</text>
</g>
</g>
</svg>
