<?xml version="1.0" encoding="UTF-8" standalone="no"?>
<!DOCTYPE svg PUBLIC "-//W3C//DTD SVG 1.1//EN"
 "http://www.w3.org/Graphics/SVG/1.1/DTD/svg11.dtd">
<!-- Generated by graphviz version 2.38.0 (20140413.2041)
 -->
<!-- Title: controllers_diagram Pages: 1 -->
<svg width="1622pt" height="211pt"
 viewBox="0.00 0.00 1622.38 211.00" xmlns="http://www.w3.org/2000/svg" xmlns:xlink="http://www.w3.org/1999/xlink">
<g id="graph0" class="graph" transform="scale(1 1) rotate(0) translate(4 207)">
<title>controllers_diagram</title>
<polygon fill="white" stroke="none" points="-4,4 -4,-207 1618.38,-207 1618.38,4 -4,4"/>
<!-- ApplicationController -->
<g id="node1" class="node"><title>ApplicationController</title>
<path fill="none" stroke="black" d="M12,-56.5C12,-56.5 197.122,-56.5 197.122,-56.5 203.122,-56.5 209.122,-62.5 209.122,-68.5 209.122,-68.5 209.122,-134.5 209.122,-134.5 209.122,-140.5 203.122,-146.5 197.122,-146.5 197.122,-146.5 12,-146.5 12,-146.5 6,-146.5 0,-140.5 0,-134.5 0,-134.5 0,-68.5 0,-68.5 0,-62.5 6,-56.5 12,-56.5"/>
<text text-anchor="middle" x="104.561" y="-131.3" font-family="Times,serif" font-size="14.00">ApplicationController</text>
<polyline fill="none" stroke="black" points="0,-124.5 209.122,-124.5 "/>
<text text-anchor="start" x="8" y="-109.3" font-family="Times,serif" font-size="14.00">_one_time_conditions_valid_114?</text>
<polyline fill="none" stroke="black" points="0,-102.5 209.122,-102.5 "/>
<polyline fill="none" stroke="black" points="0,-78.5 209.122,-78.5 "/>
<text text-anchor="start" x="8" y="-63.3" font-family="Times,serif" font-size="14.00">_layout</text>
</g>
<!-- GroupsController -->
<g id="node2" class="node"><title>GroupsController</title>
<path fill="none" stroke="black" d="M238.744,-7.5C238.744,-7.5 424.378,-7.5 424.378,-7.5 430.378,-7.5 436.378,-13.5 436.378,-19.5 436.378,-19.5 436.378,-183.5 436.378,-183.5 436.378,-189.5 430.378,-195.5 424.378,-195.5 424.378,-195.5 238.744,-195.5 238.744,-195.5 232.744,-195.5 226.744,-189.5 226.744,-183.5 226.744,-183.5 226.744,-19.5 226.744,-19.5 226.744,-13.5 232.744,-7.5 238.744,-7.5"/>
<text text-anchor="middle" x="331.561" y="-180.3" font-family="Times,serif" font-size="14.00">GroupsController</text>
<polyline fill="none" stroke="black" points="226.744,-173.5 436.378,-173.5 "/>
<text text-anchor="start" x="234.744" y="-158.3" font-family="Times,serif" font-size="14.00">_one_time_conditions_valid_136?</text>
<text text-anchor="start" x="234.744" y="-144.3" font-family="Times,serif" font-size="14.00">create</text>
<text text-anchor="start" x="234.744" y="-130.3" font-family="Times,serif" font-size="14.00">destroy</text>
<text text-anchor="start" x="234.744" y="-116.3" font-family="Times,serif" font-size="14.00">edit</text>
<text text-anchor="start" x="234.744" y="-102.3" font-family="Times,serif" font-size="14.00">index</text>
<text text-anchor="start" x="234.744" y="-88.3" font-family="Times,serif" font-size="14.00">new</text>
<text text-anchor="start" x="234.744" y="-74.3" font-family="Times,serif" font-size="14.00">show</text>
<text text-anchor="start" x="234.744" y="-60.3" font-family="Times,serif" font-size="14.00">update</text>
<polyline fill="none" stroke="black" points="226.744,-53.5 436.378,-53.5 "/>
<polyline fill="none" stroke="black" points="226.744,-29.5 436.378,-29.5 "/>
<text text-anchor="start" x="234.744" y="-14.3" font-family="Times,serif" font-size="14.00">_layout</text>
</g>
<!-- HomeController -->
<g id="node3" class="node"><title>HomeController</title>
<path fill="none" stroke="black" d="M466.682,-56.5C466.682,-56.5 550.44,-56.5 550.44,-56.5 556.44,-56.5 562.44,-62.5 562.44,-68.5 562.44,-68.5 562.44,-134.5 562.44,-134.5 562.44,-140.5 556.44,-146.5 550.44,-146.5 550.44,-146.5 466.682,-146.5 466.682,-146.5 460.682,-146.5 454.682,-140.5 454.682,-134.5 454.682,-134.5 454.682,-68.5 454.682,-68.5 454.682,-62.5 460.682,-56.5 466.682,-56.5"/>
<text text-anchor="middle" x="508.561" y="-131.3" font-family="Times,serif" font-size="14.00">HomeController</text>
<polyline fill="none" stroke="black" points="454.682,-124.5 562.44,-124.5 "/>
<text text-anchor="start" x="462.682" y="-109.3" font-family="Times,serif" font-size="14.00">index</text>
<polyline fill="none" stroke="black" points="454.682,-102.5 562.44,-102.5 "/>
<polyline fill="none" stroke="black" points="454.682,-78.5 562.44,-78.5 "/>
<text text-anchor="start" x="462.682" y="-63.3" font-family="Times,serif" font-size="14.00">_layout</text>
</g>
<!-- OmniauthCallbacksController -->
<g id="node4" class="node"><title>OmniauthCallbacksController</title>
<path fill="none" stroke="black" d="M592.188,-56.5C592.188,-56.5 752.934,-56.5 752.934,-56.5 758.934,-56.5 764.934,-62.5 764.934,-68.5 764.934,-68.5 764.934,-134.5 764.934,-134.5 764.934,-140.5 758.934,-146.5 752.934,-146.5 752.934,-146.5 592.188,-146.5 592.188,-146.5 586.188,-146.5 580.188,-140.5 580.188,-134.5 580.188,-134.5 580.188,-68.5 580.188,-68.5 580.188,-62.5 586.188,-56.5 592.188,-56.5"/>
<text text-anchor="middle" x="672.561" y="-131.3" font-family="Times,serif" font-size="14.00">OmniauthCallbacksController</text>
<polyline fill="none" stroke="black" points="580.188,-124.5 764.934,-124.5 "/>
<text text-anchor="start" x="588.188" y="-109.3" font-family="Times,serif" font-size="14.00">google_oauth2</text>
<polyline fill="none" stroke="black" points="580.188,-102.5 764.934,-102.5 "/>
<polyline fill="none" stroke="black" points="580.188,-78.5 764.934,-78.5 "/>
<text text-anchor="start" x="588.188" y="-63.3" font-family="Times,serif" font-size="14.00">_layout</text>
</g>
<!-- RegistrationsController -->
<g id="node5" class="node"><title>RegistrationsController</title>
<path fill="none" stroke="black" d="M794.847,-56.5C794.847,-56.5 918.275,-56.5 918.275,-56.5 924.275,-56.5 930.275,-62.5 930.275,-68.5 930.275,-68.5 930.275,-134.5 930.275,-134.5 930.275,-140.5 924.275,-146.5 918.275,-146.5 918.275,-146.5 794.847,-146.5 794.847,-146.5 788.847,-146.5 782.847,-140.5 782.847,-134.5 782.847,-134.5 782.847,-68.5 782.847,-68.5 782.847,-62.5 788.847,-56.5 794.847,-56.5"/>
<text text-anchor="middle" x="856.561" y="-131.3" font-family="Times,serif" font-size="14.00">RegistrationsController</text>
<polyline fill="none" stroke="black" points="782.847,-124.5 930.275,-124.5 "/>
<text text-anchor="start" x="790.847" y="-109.3" font-family="Times,serif" font-size="14.00">create</text>
<polyline fill="none" stroke="black" points="782.847,-102.5 930.275,-102.5 "/>
<polyline fill="none" stroke="black" points="782.847,-78.5 930.275,-78.5 "/>
<text text-anchor="start" x="790.847" y="-63.3" font-family="Times,serif" font-size="14.00">_layout</text>
</g>
<!-- ReviewsController -->
<g id="node6" class="node"><title>ReviewsController</title>
<path fill="none" stroke="black" d="M960.744,-7.5C960.744,-7.5 1146.38,-7.5 1146.38,-7.5 1152.38,-7.5 1158.38,-13.5 1158.38,-19.5 1158.38,-19.5 1158.38,-183.5 1158.38,-183.5 1158.38,-189.5 1152.38,-195.5 1146.38,-195.5 1146.38,-195.5 960.744,-195.5 960.744,-195.5 954.744,-195.5 948.744,-189.5 948.744,-183.5 948.744,-183.5 948.744,-19.5 948.744,-19.5 948.744,-13.5 954.744,-7.5 960.744,-7.5"/>
<text text-anchor="middle" x="1053.56" y="-180.3" font-family="Times,serif" font-size="14.00">ReviewsController</text>
<polyline fill="none" stroke="black" points="948.744,-173.5 1158.38,-173.5 "/>
<text text-anchor="start" x="956.744" y="-158.3" font-family="Times,serif" font-size="14.00">_one_time_conditions_valid_156?</text>
<text text-anchor="start" x="956.744" y="-144.3" font-family="Times,serif" font-size="14.00">create</text>
<text text-anchor="start" x="956.744" y="-130.3" font-family="Times,serif" font-size="14.00">destroy</text>
<text text-anchor="start" x="956.744" y="-116.3" font-family="Times,serif" font-size="14.00">edit</text>
<text text-anchor="start" x="956.744" y="-102.3" font-family="Times,serif" font-size="14.00">index</text>
<text text-anchor="start" x="956.744" y="-88.3" font-family="Times,serif" font-size="14.00">new</text>
<text text-anchor="start" x="956.744" y="-74.3" font-family="Times,serif" font-size="14.00">show</text>
<text text-anchor="start" x="956.744" y="-60.3" font-family="Times,serif" font-size="14.00">update</text>
<polyline fill="none" stroke="black" points="948.744,-53.5 1158.38,-53.5 "/>
<polyline fill="none" stroke="black" points="948.744,-29.5 1158.38,-29.5 "/>
<text text-anchor="start" x="956.744" y="-14.3" font-family="Times,serif" font-size="14.00">_layout</text>
</g>
<!-- UsersController -->
<g id="node7" class="node"><title>UsersController</title>
<path fill="none" stroke="black" d="M1188.74,-7.5C1188.74,-7.5 1374.38,-7.5 1374.38,-7.5 1380.38,-7.5 1386.38,-13.5 1386.38,-19.5 1386.38,-19.5 1386.38,-183.5 1386.38,-183.5 1386.38,-189.5 1380.38,-195.5 1374.38,-195.5 1374.38,-195.5 1188.74,-195.5 1188.74,-195.5 1182.74,-195.5 1176.74,-189.5 1176.74,-183.5 1176.74,-183.5 1176.74,-19.5 1176.74,-19.5 1176.74,-13.5 1182.74,-7.5 1188.74,-7.5"/>
<text text-anchor="middle" x="1281.56" y="-180.3" font-family="Times,serif" font-size="14.00">UsersController</text>
<polyline fill="none" stroke="black" points="1176.74,-173.5 1386.38,-173.5 "/>
<text text-anchor="start" x="1184.74" y="-158.3" font-family="Times,serif" font-size="14.00">_one_time_conditions_valid_158?</text>
<text text-anchor="start" x="1184.74" y="-144.3" font-family="Times,serif" font-size="14.00">create</text>
<text text-anchor="start" x="1184.74" y="-130.3" font-family="Times,serif" font-size="14.00">destroy</text>
<text text-anchor="start" x="1184.74" y="-116.3" font-family="Times,serif" font-size="14.00">edit</text>
<text text-anchor="start" x="1184.74" y="-102.3" font-family="Times,serif" font-size="14.00">index</text>
<text text-anchor="start" x="1184.74" y="-88.3" font-family="Times,serif" font-size="14.00">new</text>
<text text-anchor="start" x="1184.74" y="-74.3" font-family="Times,serif" font-size="14.00">show</text>
<text text-anchor="start" x="1184.74" y="-60.3" font-family="Times,serif" font-size="14.00">update</text>
<polyline fill="none" stroke="black" points="1176.74,-53.5 1386.38,-53.5 "/>
<polyline fill="none" stroke="black" points="1176.74,-29.5 1386.38,-29.5 "/>
<text text-anchor="start" x="1184.74" y="-14.3" font-family="Times,serif" font-size="14.00">_layout</text>
</g>
<!-- WifisController -->
<g id="node8" class="node"><title>WifisController</title>
<path fill="none" stroke="black" d="M1416.74,-0.5C1416.74,-0.5 1602.38,-0.5 1602.38,-0.5 1608.38,-0.5 1614.38,-6.5 1614.38,-12.5 1614.38,-12.5 1614.38,-190.5 1614.38,-190.5 1614.38,-196.5 1608.38,-202.5 1602.38,-202.5 1602.38,-202.5 1416.74,-202.5 1416.74,-202.5 1410.74,-202.5 1404.74,-196.5 1404.74,-190.5 1404.74,-190.5 1404.74,-12.5 1404.74,-12.5 1404.74,-6.5 1410.74,-0.5 1416.74,-0.5"/>
<text text-anchor="middle" x="1509.56" y="-187.3" font-family="Times,serif" font-size="14.00">WifisController</text>
<polyline fill="none" stroke="black" points="1404.74,-180.5 1614.38,-180.5 "/>
<text text-anchor="start" x="1412.74" y="-165.3" font-family="Times,serif" font-size="14.00">_one_time_conditions_valid_250?</text>
<text text-anchor="start" x="1412.74" y="-151.3" font-family="Times,serif" font-size="14.00">add_favourite</text>
<text text-anchor="start" x="1412.74" y="-137.3" font-family="Times,serif" font-size="14.00">create</text>
<text text-anchor="start" x="1412.74" y="-123.3" font-family="Times,serif" font-size="14.00">destroy</text>
<text text-anchor="start" x="1412.74" y="-109.3" font-family="Times,serif" font-size="14.00">edit</text>
<text text-anchor="start" x="1412.74" y="-95.3" font-family="Times,serif" font-size="14.00">index</text>
<text text-anchor="start" x="1412.74" y="-81.3" font-family="Times,serif" font-size="14.00">new</text>
<text text-anchor="start" x="1412.74" y="-67.3" font-family="Times,serif" font-size="14.00">show</text>
<text text-anchor="start" x="1412.74" y="-53.3" font-family="Times,serif" font-size="14.00">update</text>
<polyline fill="none" stroke="black" points="1404.74,-46.5 1614.38,-46.5 "/>
<polyline fill="none" stroke="black" points="1404.74,-22.5 1614.38,-22.5 "/>
<text text-anchor="start" x="1412.74" y="-7.3" font-family="Times,serif" font-size="14.00">_layout</text>
</g>
</g>
</svg>
