<?xml version="1.0" encoding="UTF-8" standalone="no"?>
<!DOCTYPE svg PUBLIC "-//W3C//DTD SVG 1.1//EN"
 "http://www.w3.org/Graphics/SVG/1.1/DTD/svg11.dtd">
<!-- Generated by graphviz version 2.38.0 (20140413.2041)
 -->
<!-- Title: models_diagram Pages: 1 -->
<svg width="458pt" height="1192pt"
 viewBox="0.00 0.00 457.78 1192.00" xmlns="http://www.w3.org/2000/svg" xmlns:xlink="http://www.w3.org/1999/xlink">
<g id="graph0" class="graph" transform="scale(1 1) rotate(0) translate(4 1188)">
<title>models_diagram</title>
<polygon fill="white" stroke="none" points="-4,4 -4,-1188 453.783,-1188 453.783,4 -4,4"/>
<!-- Group -->
<g id="node1" class="node"><title>Group</title>
<path fill="none" stroke="black" d="M177.772,-1069.5C177.772,-1069.5 286.783,-1069.5 286.783,-1069.5 292.783,-1069.5 298.783,-1075.5 298.783,-1081.5 298.783,-1081.5 298.783,-1157.5 298.783,-1157.5 298.783,-1163.5 292.783,-1169.5 286.783,-1169.5 286.783,-1169.5 177.772,-1169.5 177.772,-1169.5 171.772,-1169.5 165.772,-1163.5 165.772,-1157.5 165.772,-1157.5 165.772,-1081.5 165.772,-1081.5 165.772,-1075.5 171.772,-1069.5 177.772,-1069.5"/>
<text text-anchor="middle" x="232.278" y="-1154.3" font-family="Times,serif" font-size="14.00">Group</text>
<polyline fill="none" stroke="black" points="165.772,-1147.5 298.783,-1147.5 "/>
<text text-anchor="start" x="173.772" y="-1132.3" font-family="Times,serif" font-size="14.00">id :integer</text>
<text text-anchor="start" x="173.772" y="-1118.3" font-family="Times,serif" font-size="14.00">name :string</text>
<text text-anchor="start" x="173.772" y="-1104.3" font-family="Times,serif" font-size="14.00">created_at :datetime</text>
<text text-anchor="start" x="173.772" y="-1090.3" font-family="Times,serif" font-size="14.00">updated_at :datetime</text>
<text text-anchor="start" x="173.772" y="-1076.3" font-family="Times,serif" font-size="14.00">group_type :string</text>
</g>
<!-- User -->
<g id="node4" class="node"><title>User</title>
<path fill="none" stroke="black" d="M12,-638.5C12,-638.5 192.556,-638.5 192.556,-638.5 198.556,-638.5 204.556,-644.5 204.556,-650.5 204.556,-650.5 204.556,-1006.5 204.556,-1006.5 204.556,-1012.5 198.556,-1018.5 192.556,-1018.5 192.556,-1018.5 12,-1018.5 12,-1018.5 6,-1018.5 0,-1012.5 0,-1006.5 0,-1006.5 0,-650.5 0,-650.5 0,-644.5 6,-638.5 12,-638.5"/>
<text text-anchor="middle" x="102.278" y="-1003.3" font-family="Times,serif" font-size="14.00">User</text>
<polyline fill="none" stroke="black" points="0,-996.5 204.556,-996.5 "/>
<text text-anchor="start" x="8" y="-981.3" font-family="Times,serif" font-size="14.00">id :integer</text>
<text text-anchor="start" x="8" y="-967.3" font-family="Times,serif" font-size="14.00">email :string</text>
<text text-anchor="start" x="8" y="-953.3" font-family="Times,serif" font-size="14.00">encrypted_password :string</text>
<text text-anchor="start" x="8" y="-939.3" font-family="Times,serif" font-size="14.00">reset_password_token :string</text>
<text text-anchor="start" x="8" y="-925.3" font-family="Times,serif" font-size="14.00">reset_password_sent_at :datetime</text>
<text text-anchor="start" x="8" y="-911.3" font-family="Times,serif" font-size="14.00">remember_created_at :datetime</text>
<text text-anchor="start" x="8" y="-897.3" font-family="Times,serif" font-size="14.00">sign_in_count :integer</text>
<text text-anchor="start" x="8" y="-883.3" font-family="Times,serif" font-size="14.00">current_sign_in_at :datetime</text>
<text text-anchor="start" x="8" y="-869.3" font-family="Times,serif" font-size="14.00">last_sign_in_at :datetime</text>
<text text-anchor="start" x="8" y="-855.3" font-family="Times,serif" font-size="14.00">current_sign_in_ip :string</text>
<text text-anchor="start" x="8" y="-841.3" font-family="Times,serif" font-size="14.00">last_sign_in_ip :string</text>
<text text-anchor="start" x="8" y="-827.3" font-family="Times,serif" font-size="14.00">created_at :datetime</text>
<text text-anchor="start" x="8" y="-813.3" font-family="Times,serif" font-size="14.00">updated_at :datetime</text>
<text text-anchor="start" x="8" y="-799.3" font-family="Times,serif" font-size="14.00">first :string</text>
<text text-anchor="start" x="8" y="-785.3" font-family="Times,serif" font-size="14.00">last :string</text>
<text text-anchor="start" x="8" y="-771.3" font-family="Times,serif" font-size="14.00">dob :date</text>
<text text-anchor="start" x="8" y="-757.3" font-family="Times,serif" font-size="14.00">sex :boolean</text>
<text text-anchor="start" x="8" y="-743.3" font-family="Times,serif" font-size="14.00">occupation :string</text>
<text text-anchor="start" x="8" y="-729.3" font-family="Times,serif" font-size="14.00">position :string</text>
<text text-anchor="start" x="8" y="-715.3" font-family="Times,serif" font-size="14.00">image :text</text>
<text text-anchor="start" x="8" y="-701.3" font-family="Times,serif" font-size="14.00">role :string</text>
<text text-anchor="start" x="8" y="-687.3" font-family="Times,serif" font-size="14.00">phone :integer</text>
<text text-anchor="start" x="8" y="-673.3" font-family="Times,serif" font-size="14.00">user_type_id :integer</text>
<text text-anchor="start" x="8" y="-659.3" font-family="Times,serif" font-size="14.00">provider :string</text>
<text text-anchor="start" x="8" y="-645.3" font-family="Times,serif" font-size="14.00">uid :string</text>
</g>
<!-- Group&#45;&gt;User -->
<g id="edge1" class="edge"><title>Group&#45;&gt;User</title>
<path fill="none" stroke="#5d03e9" d="M205.987,-1060.05C201.483,-1050.04 196.588,-1039.16 191.459,-1027.76"/>
<polygon fill="#5d03e9" stroke="#5d03e9" points="206.123,-1060.36 206.121,-1071.32 208.174,-1064.92 210.225,-1069.48 210.225,-1069.48 210.225,-1069.48 208.174,-1064.92 214.329,-1067.63 206.123,-1060.36 206.123,-1060.36"/>
<polygon fill="#5d03e9" stroke="#5d03e9" points="191.401,-1027.63 191.403,-1016.66 189.35,-1023.07 187.299,-1018.51 187.299,-1018.51 187.299,-1018.51 189.35,-1023.07 183.195,-1020.35 191.401,-1027.63 191.401,-1027.63"/>
</g>
<!-- Wifi -->
<g id="node7" class="node"><title>Wifi</title>
<path fill="none" stroke="black" d="M149.883,-291.5C149.883,-291.5 308.673,-291.5 308.673,-291.5 314.673,-291.5 320.673,-297.5 320.673,-303.5 320.673,-303.5 320.673,-589.5 320.673,-589.5 320.673,-595.5 314.673,-601.5 308.673,-601.5 308.673,-601.5 149.883,-601.5 149.883,-601.5 143.883,-601.5 137.883,-595.5 137.883,-589.5 137.883,-589.5 137.883,-303.5 137.883,-303.5 137.883,-297.5 143.883,-291.5 149.883,-291.5"/>
<text text-anchor="middle" x="229.278" y="-586.3" font-family="Times,serif" font-size="14.00">Wifi</text>
<polyline fill="none" stroke="black" points="137.883,-579.5 320.673,-579.5 "/>
<text text-anchor="start" x="145.883" y="-564.3" font-family="Times,serif" font-size="14.00">id :integer</text>
<text text-anchor="start" x="145.883" y="-550.3" font-family="Times,serif" font-size="14.00">name :string</text>
<text text-anchor="start" x="145.883" y="-536.3" font-family="Times,serif" font-size="14.00">password :string</text>
<text text-anchor="start" x="145.883" y="-522.3" font-family="Times,serif" font-size="14.00">free_or_paid :boolean</text>
<text text-anchor="start" x="145.883" y="-508.3" font-family="Times,serif" font-size="14.00">share_scope :string</text>
<text text-anchor="start" x="145.883" y="-494.3" font-family="Times,serif" font-size="14.00">business_name :string</text>
<text text-anchor="start" x="145.883" y="-480.3" font-family="Times,serif" font-size="14.00">address_line_1 :string</text>
<text text-anchor="start" x="145.883" y="-466.3" font-family="Times,serif" font-size="14.00">address_line_2 :string</text>
<text text-anchor="start" x="145.883" y="-452.3" font-family="Times,serif" font-size="14.00">city :string</text>
<text text-anchor="start" x="145.883" y="-438.3" font-family="Times,serif" font-size="14.00">postcode :string</text>
<text text-anchor="start" x="145.883" y="-424.3" font-family="Times,serif" font-size="14.00">country :string</text>
<text text-anchor="start" x="145.883" y="-410.3" font-family="Times,serif" font-size="14.00">phone :integer</text>
<text text-anchor="start" x="145.883" y="-396.3" font-family="Times,serif" font-size="14.00">created_at :datetime</text>
<text text-anchor="start" x="145.883" y="-382.3" font-family="Times,serif" font-size="14.00">updated_at :datetime</text>
<text text-anchor="start" x="145.883" y="-368.3" font-family="Times,serif" font-size="14.00">venue_type_id :integer</text>
<text text-anchor="start" x="145.883" y="-354.3" font-family="Times,serif" font-size="14.00">image :text</text>
<text text-anchor="start" x="145.883" y="-340.3" font-family="Times,serif" font-size="14.00">powerpoint :integer</text>
<text text-anchor="start" x="145.883" y="-326.3" font-family="Times,serif" font-size="14.00">number_of_seats :integer</text>
<text text-anchor="start" x="145.883" y="-312.3" font-family="Times,serif" font-size="14.00">reservation_possible :boolean</text>
<text text-anchor="start" x="145.883" y="-298.3" font-family="Times,serif" font-size="14.00">overall_rating :integer</text>
</g>
<!-- Group&#45;&gt;Wifi -->
<g id="edge2" class="edge"><title>Group&#45;&gt;Wifi</title>
<path fill="none" stroke="#a51678" d="M232.013,-1059.36C231.57,-960.216 230.662,-757.082 230.014,-612.075"/>
<polygon fill="#a51678" stroke="#a51678" points="232.014,-1059.43 227.558,-1069.45 232.036,-1064.43 232.058,-1069.43 232.058,-1069.43 232.058,-1069.43 232.036,-1064.43 236.558,-1069.41 232.014,-1059.43 232.014,-1059.43"/>
<polygon fill="#a51678" stroke="#a51678" points="230.012,-611.737 234.467,-601.717 229.99,-606.737 229.967,-601.737 229.967,-601.737 229.967,-601.737 229.99,-606.737 225.467,-601.757 230.012,-611.737 230.012,-611.737"/>
</g>
<!-- OpeningTime -->
<g id="node2" class="node"><title>OpeningTime</title>
<path fill="none" stroke="black" d="M328.772,-1055.5C328.772,-1055.5 437.783,-1055.5 437.783,-1055.5 443.783,-1055.5 449.783,-1061.5 449.783,-1067.5 449.783,-1067.5 449.783,-1171.5 449.783,-1171.5 449.783,-1177.5 443.783,-1183.5 437.783,-1183.5 437.783,-1183.5 328.772,-1183.5 328.772,-1183.5 322.772,-1183.5 316.772,-1177.5 316.772,-1171.5 316.772,-1171.5 316.772,-1067.5 316.772,-1067.5 316.772,-1061.5 322.772,-1055.5 328.772,-1055.5"/>
<text text-anchor="middle" x="383.278" y="-1168.3" font-family="Times,serif" font-size="14.00">OpeningTime</text>
<polyline fill="none" stroke="black" points="316.772,-1161.5 449.783,-1161.5 "/>
<text text-anchor="start" x="324.772" y="-1146.3" font-family="Times,serif" font-size="14.00">id :integer</text>
<text text-anchor="start" x="324.772" y="-1132.3" font-family="Times,serif" font-size="14.00">day :string</text>
<text text-anchor="start" x="324.772" y="-1118.3" font-family="Times,serif" font-size="14.00">close :time</text>
<text text-anchor="start" x="324.772" y="-1104.3" font-family="Times,serif" font-size="14.00">open :time</text>
<text text-anchor="start" x="324.772" y="-1090.3" font-family="Times,serif" font-size="14.00">wifi_id :integer</text>
<text text-anchor="start" x="324.772" y="-1076.3" font-family="Times,serif" font-size="14.00">created_at :datetime</text>
<text text-anchor="start" x="324.772" y="-1062.3" font-family="Times,serif" font-size="14.00">updated_at :datetime</text>
</g>
<!-- Review -->
<g id="node3" class="node"><title>Review</title>
<path fill="none" stroke="black" d="M78.7759,-0.5C78.7759,-0.5 257.78,-0.5 257.78,-0.5 263.78,-0.5 269.78,-6.5 269.78,-12.5 269.78,-12.5 269.78,-242.5 269.78,-242.5 269.78,-248.5 263.78,-254.5 257.78,-254.5 257.78,-254.5 78.7759,-254.5 78.7759,-254.5 72.7759,-254.5 66.7759,-248.5 66.7759,-242.5 66.7759,-242.5 66.7759,-12.5 66.7759,-12.5 66.7759,-6.5 72.7759,-0.5 78.7759,-0.5"/>
<text text-anchor="middle" x="168.278" y="-239.3" font-family="Times,serif" font-size="14.00">Review</text>
<polyline fill="none" stroke="black" points="66.7759,-232.5 269.78,-232.5 "/>
<text text-anchor="start" x="74.7759" y="-217.3" font-family="Times,serif" font-size="14.00">id :integer</text>
<text text-anchor="start" x="74.7759" y="-203.3" font-family="Times,serif" font-size="14.00">user_id :integer</text>
<text text-anchor="start" x="74.7759" y="-189.3" font-family="Times,serif" font-size="14.00">wifi_id :integer</text>
<text text-anchor="start" x="74.7759" y="-175.3" font-family="Times,serif" font-size="14.00">comment :text</text>
<text text-anchor="start" x="74.7759" y="-161.3" font-family="Times,serif" font-size="14.00">stability :integer</text>
<text text-anchor="start" x="74.7759" y="-147.3" font-family="Times,serif" font-size="14.00">signal_strength :integer</text>
<text text-anchor="start" x="74.7759" y="-133.3" font-family="Times,serif" font-size="14.00">speed :integer</text>
<text text-anchor="start" x="74.7759" y="-119.3" font-family="Times,serif" font-size="14.00">quietness :integer</text>
<text text-anchor="start" x="74.7759" y="-105.3" font-family="Times,serif" font-size="14.00">overall_rating :integer</text>
<text text-anchor="start" x="74.7759" y="-91.3" font-family="Times,serif" font-size="14.00">food :integer</text>
<text text-anchor="start" x="74.7759" y="-77.3" font-family="Times,serif" font-size="14.00">toilet :integer</text>
<text text-anchor="start" x="74.7759" y="-63.3" font-family="Times,serif" font-size="14.00">power_point_availability :integer</text>
<text text-anchor="start" x="74.7759" y="-49.3" font-family="Times,serif" font-size="14.00">rough_number_of_seats :integer</text>
<text text-anchor="start" x="74.7759" y="-35.3" font-family="Times,serif" font-size="14.00">reservation_possible :boolean</text>
<text text-anchor="start" x="74.7759" y="-21.3" font-family="Times,serif" font-size="14.00">created_at :datetime</text>
<text text-anchor="start" x="74.7759" y="-7.3" font-family="Times,serif" font-size="14.00">updated_at :datetime</text>
</g>
<!-- User&#45;&gt;Review -->
<g id="edge3" class="edge"><title>User&#45;&gt;Review</title>
<path fill="none" stroke="#1d6ed8" d="M103.486,-630.078C106.312,-528.351 113.225,-402.558 129.278,-291 130.509,-282.445 131.981,-273.681 133.623,-264.873"/>
<ellipse fill="none" stroke="#1d6ed8" cx="103.373" cy="-634.29" rx="4" ry="4"/>
<polygon fill="#1d6ed8" stroke="#1d6ed8" points="133.649,-264.736 139.962,-255.769 134.596,-259.826 135.543,-254.917 135.543,-254.917 135.543,-254.917 134.596,-259.826 131.125,-254.064 133.649,-264.736 133.649,-264.736"/>
</g>
<!-- User&#45;&gt;Wifi -->
<g id="edge4" class="edge"><title>User&#45;&gt;Wifi</title>
<path fill="none" stroke="#73ce38" d="M168.673,-628.838C170.623,-623.004 172.569,-617.181 174.504,-611.39"/>
<polygon fill="#73ce38" stroke="#73ce38" points="168.669,-628.851 161.231,-636.909 167.084,-633.593 165.499,-638.335 165.499,-638.335 165.499,-638.335 167.084,-633.593 169.767,-639.761 168.669,-628.851 168.669,-628.851"/>
<polygon fill="#73ce38" stroke="#73ce38" points="174.579,-611.165 182.017,-603.107 176.164,-606.423 177.749,-601.681 177.749,-601.681 177.749,-601.681 176.164,-606.423 173.481,-600.254 174.579,-611.165 174.579,-611.165"/>
</g>
<!-- UserType -->
<g id="node5" class="node"><title>UserType</title>
<path fill="none" stroke="black" d="M26.7725,-1076.5C26.7725,-1076.5 135.783,-1076.5 135.783,-1076.5 141.783,-1076.5 147.783,-1082.5 147.783,-1088.5 147.783,-1088.5 147.783,-1150.5 147.783,-1150.5 147.783,-1156.5 141.783,-1162.5 135.783,-1162.5 135.783,-1162.5 26.7725,-1162.5 26.7725,-1162.5 20.7725,-1162.5 14.7725,-1156.5 14.7725,-1150.5 14.7725,-1150.5 14.7725,-1088.5 14.7725,-1088.5 14.7725,-1082.5 20.7725,-1076.5 26.7725,-1076.5"/>
<text text-anchor="middle" x="81.2778" y="-1147.3" font-family="Times,serif" font-size="14.00">UserType</text>
<polyline fill="none" stroke="black" points="14.7725,-1140.5 147.783,-1140.5 "/>
<text text-anchor="start" x="22.7725" y="-1125.3" font-family="Times,serif" font-size="14.00">id :integer</text>
<text text-anchor="start" x="22.7725" y="-1111.3" font-family="Times,serif" font-size="14.00">created_at :datetime</text>
<text text-anchor="start" x="22.7725" y="-1097.3" font-family="Times,serif" font-size="14.00">updated_at :datetime</text>
<text text-anchor="start" x="22.7725" y="-1083.3" font-family="Times,serif" font-size="14.00">name :string</text>
</g>
<!-- UserType&#45;&gt;User -->
<g id="edge5" class="edge"><title>UserType&#45;&gt;User</title>
<path fill="none" stroke="#5c31c6" d="M84.937,-1068.14C85.7917,-1056.38 86.7535,-1043.14 87.7747,-1029.09"/>
<ellipse fill="none" stroke="#5c31c6" cx="84.6213" cy="-1072.49" rx="4" ry="4"/>
<polygon fill="#5c31c6" stroke="#5c31c6" points="87.8033,-1028.7 93.0163,-1019.05 88.1657,-1023.71 88.5281,-1018.72 88.5281,-1018.72 88.5281,-1018.72 88.1657,-1023.71 84.0399,-1018.4 87.8033,-1028.7 87.8033,-1028.7"/>
</g>
<!-- VenueType -->
<g id="node6" class="node"><title>VenueType</title>
<path fill="none" stroke="black" d="M272.772,-785.5C272.772,-785.5 381.783,-785.5 381.783,-785.5 387.783,-785.5 393.783,-791.5 393.783,-797.5 393.783,-797.5 393.783,-859.5 393.783,-859.5 393.783,-865.5 387.783,-871.5 381.783,-871.5 381.783,-871.5 272.772,-871.5 272.772,-871.5 266.772,-871.5 260.772,-865.5 260.772,-859.5 260.772,-859.5 260.772,-797.5 260.772,-797.5 260.772,-791.5 266.772,-785.5 272.772,-785.5"/>
<text text-anchor="middle" x="327.278" y="-856.3" font-family="Times,serif" font-size="14.00">VenueType</text>
<polyline fill="none" stroke="black" points="260.772,-849.5 393.783,-849.5 "/>
<text text-anchor="start" x="268.772" y="-834.3" font-family="Times,serif" font-size="14.00">id :integer</text>
<text text-anchor="start" x="268.772" y="-820.3" font-family="Times,serif" font-size="14.00">created_at :datetime</text>
<text text-anchor="start" x="268.772" y="-806.3" font-family="Times,serif" font-size="14.00">updated_at :datetime</text>
<text text-anchor="start" x="268.772" y="-792.3" font-family="Times,serif" font-size="14.00">name :string</text>
</g>
<!-- VenueType&#45;&gt;Wifi -->
<g id="edge6" class="edge"><title>VenueType&#45;&gt;Wifi</title>
<path fill="none" stroke="#a2c306" d="M314.4,-777.564C303.445,-735.086 287.072,-671.601 271.604,-611.621"/>
<ellipse fill="none" stroke="#a2c306" cx="315.417" cy="-781.508" rx="4.00001" ry="4.00001"/>
<polygon fill="#a2c306" stroke="#a2c306" points="271.527,-611.324 273.387,-600.517 270.279,-606.483 269.03,-601.641 269.03,-601.641 269.03,-601.641 270.279,-606.483 264.673,-602.765 271.527,-611.324 271.527,-611.324"/>
</g>
<!-- Wifi&#45;&gt;Review -->
<g id="edge7" class="edge"><title>Wifi&#45;&gt;Review</title>
<path fill="none" stroke="#247d25" d="M198.031,-283.117C196.848,-276.97 195.666,-270.831 194.494,-264.736"/>
<ellipse fill="none" stroke="#247d25" cx="198.826" cy="-287.251" rx="4.00001" ry="4.00001"/>
<polygon fill="#247d25" stroke="#247d25" points="194.419,-264.348 196.948,-253.678 193.474,-259.438 192.529,-254.529 192.529,-254.529 192.529,-254.529 193.474,-259.438 188.11,-255.379 194.419,-264.348 194.419,-264.348"/>
</g>
</g>
</svg>
